<?xml version="1.0" standalone="yes"?>
<svg xmlns="http://www.w3.org/2000/svg" width="2664" height="560">
<path style="fill:#010101; stroke:none;" d="M0 0L0 560L2664 560L2664 0L0 0z"/>
<path style="fill:#079add; stroke:none;" d="M11 91L53 116L57 114L62 117L62 115L66 115L74 120L75 116L90 122L89 118L101 124L103 123L102 118L117 126L116 121L122 125L133 128L132 125L137 127L136 125L137 125L144 129L143 127L144 127L151 131L150 127L160 133L159 129L167 133C167 128.782 173.478 134.336 176 135L175 131L185 137L184 131L213 145L252 50L109 50C85.8861 50 60.911 47.3047 38 50.2894C16.3335 53.1119 8.52698 71.4318 11 91z"/>
<path style="fill:#ce157f; stroke:none;" d="M159 418C166.129 416.146 171.547 409.706 177 405C188.039 395.473 198.997 385.851 210 376.282L333 269.282C343.671 260.001 354.29 250.659 365 241.424C373.314 234.255 380.939 228.941 379.906 217C378.01 195.083 336.887 203.375 322 202.985C313.282 202.757 303.383 196.8 303.37 187C303.356 175.971 315.178 161.553 320.219 152C332.537 128.655 345.151 105.455 357.258 82C362.392 72.0558 371.025 61.0712 373 50L300 50C291.908 50 277.657 47.2288 270.275 50.6034C266.798 52.1924 265.533 57.7798 264.15 61L251.85 90C237.841 122.642 223.902 155.312 210 188C205.234 199.207 194.261 215.433 197.558 228C202.441 246.612 228.478 238.081 242 240.214C249.901 241.46 257.104 249.865 255.656 258C253.041 272.69 237.607 290.417 229.681 303C212.851 329.719 196.653 356.926 180.4 384C173.839 394.929 163.512 406.27 159 418z"/>
<path style="fill:#b71f17; stroke:none;" d="M306 519L302 521L304 500C296.507 500 305.06 484.121 303 480L300 482L295 468L291 470C289.875 456.623 289.692 450.118 301 441L297 435C296.609 431.801 296.518 427.484 293 427L293 419L289 412L286 413L290 395L286 396L285 377L286 377L288 379L289 374L286 376L283 367L280 369L280 360C294.419 357.84 309.309 350.06 323 345.053C350.629 334.948 378.369 325.15 406 315.053C416.62 311.172 427.288 307.286 438 303.667C442.482 302.153 449.66 300.881 453.046 297.437C463.066 287.242 469.76 269.42 476.85 257C493.252 228.268 509.817 199.615 526.424 171C535.7 155.017 544.745 138.876 554.201 123C559.966 113.319 567.688 102.835 570.957 92C575.013 78.5558 570.602 63.9189 559 55.6381C550.469 49.5497 539.955 50 530 50L484 50L415 50C407.007 50 393.571 47.4022 386.213 50.6034C378.955 53.761 372.257 73.9938 368.753 81C358.383 101.737 347.96 122.803 336.576 143C331.163 152.602 320.662 166.764 320.279 178C319.848 190.641 335.769 188 344 188C353.729 188 366.779 185.749 376 189.133C395.917 196.444 398.463 219.063 388.034 234.999C377.848 250.566 357.016 263.109 343 275.282C312.055 302.157 280.945 328.843 250 355.718C238.043 366.103 226.025 376.422 214 386.729C210.741 389.523 202.588 394.364 202.252 399.039C202.01 402.415 205.376 406.253 206.989 409C211.467 416.624 215.677 424.404 220.201 432C233.008 453.504 244.992 475.496 257.799 497C263.199 506.067 267.578 517.391 275.093 524.907C280.093 529.906 302.125 540.93 307.882 531.486C309.809 528.326 306.752 522.281 306 519z"/>
<path style="fill:#14519a; stroke:none;" d="M12 91L28.8495 123L63.5756 183L171 369L173 369C186.488 340.482 207.276 313.745 224.05 287C229.344 278.559 242.172 264.63 240.731 254.005C239.633 245.9 230.01 247 224 247C210.834 247 190.14 249.687 181.879 236.996C176.253 228.354 182.189 217.387 185.603 209C194.162 187.975 206.01 166.9 212 145L184 131L185 137L175 131L176 135C173.795 133.811 167.674 129.066 167 133L159 129L160 133L150 127L151 131L143 127L144 129L136 125L137 127L136 127L132 125L133 128C129.279 126.243 125.954 122.921 122 125L116 121L117 126L102 118L103 123L101 124L89 118L90 122L75 116L74 120L66 115L62 115L62 117L57 114L53 116L12 91z"/>
<path style="fill:#079add; stroke:none;" d="M12 93L13 94L12 93M13 95L14 96L13 95M14 97L15 98L14 97M18 104L19 105L18 104M21 109L22 110L21 109z"/>
<path style="fill:#14519a; stroke:none;" d="M73 117L74 118L73 117M82 118L83 119L82 118z"/>
<path style="fill:#079add; stroke:none;" d="M210 149L211 150L210 149M629 186C633.778 203.47 643.084 220.267 649.989 237C667.096 278.451 685.387 319.43 702.201 361C706.402 371.389 710.841 381.71 715.281 392C716.801 395.524 718.188 401.702 721.498 403.972C726.202 407.198 745.343 406.293 750.787 404.682C755.461 403.299 757.335 395.01 758.989 391C764.37 377.962 769.886 364.973 775.421 352C791.458 314.416 807.423 276.772 823.011 239C830.194 221.594 839.827 204.097 845 186L807 186L791.51 187.028L786.808 197L776.808 225L737 336L697.692 227L687.692 199L682.351 187.028L667 186L629 186M928 186.424C918.259 187.719 909.056 189.42 900 193.439C854.885 213.464 859 261.952 859 303C859 329.761 857.543 355.71 875.015 378C897.862 407.149 933.75 405 967 405C982.626 405 998.501 405.918 1014 403.715C1021.58 402.637 1029.16 400.148 1036 396.73C1080.01 374.725 1075 328.52 1075 287C1075 262.377 1076.95 238.431 1062.48 217C1040.64 184.662 1003.54 186 969 186C955.57 186 941.318 184.654 928 186.424M1105 186L1105 307C1105 334.837 1104.95 362.683 1126.17 383.829C1147.27 404.854 1175.33 405 1203 405L1321 405L1321 356L1207 356C1192.86 356 1173.23 359.579 1162.04 348.895C1150.28 337.66 1154 317.73 1154 303L1154 186L1105 186M1282 186L1282 235L1365 235L1365 405L1414 405L1414 235L1498 235L1498 186L1282 186z"/>
<path style="fill:#ce157f; stroke:none;" d="M1523 356L1523 405L1633 405C1656.15 405 1680.33 406.895 1702 397.135C1741.74 379.237 1753.52 324.802 1722.83 293.09C1696.11 265.477 1654.77 271 1620 271C1605.68 271 1585.93 274.431 1574.09 264.471C1557.17 250.23 1579.81 235.666 1594 235.039C1641.46 232.943 1689.49 235 1737 235L1737 186L1626 186C1603.66 186 1579.92 183.888 1559 193.312C1520.08 210.843 1504.41 263.039 1535.09 295.999C1561.87 324.773 1602.38 320 1638 320C1652.09 320 1672.03 316.412 1683.98 325.557C1702.01 339.352 1681.42 355.26 1666 355.961C1618.55 358.115 1570.5 356 1523 356M1771 186L1771 306C1771 330.263 1769.03 354.255 1784.16 375C1808.13 407.861 1858.27 410.877 1895 402.116C1902.04 400.436 1908.71 397.723 1915 394.127C1917.93 392.454 1921.49 388.887 1925 388.789C1928.49 388.691 1932.15 392.297 1935 393.985C1940.96 397.515 1947.31 400.061 1954 401.845C1974.21 407.234 2000.51 407.259 2021 403.192C2047.2 397.991 2069.22 378.939 2076.57 353C2082.16 333.279 2080 311.289 2080 291L2080 186L2031 186L2031 300C2031 313.957 2034.68 334.25 2025.47 345.985C2017.9 355.628 2006.19 356 1995 356C1978.45 356 1958.15 357.907 1950.95 339C1945.57 324.871 1949 304.937 1949 290L1949 186L1901 186L1901 298C1901 311.997 1904.83 332.95 1896.2 344.985C1888.55 355.647 1875.83 356 1864 356C1847.55 356 1828.07 357.693 1820.95 339C1815.57 324.871 1819 304.937 1819 290L1819 186L1771 186M2110 405L2158 405L2158 346L2277 346L2277 405L2326 405L2326 289C2326 265.939 2327.86 241.647 2315.55 221C2308.09 208.489 2296.54 198.137 2283 192.605C2264.65 185.107 2245.42 186 2226 186C2187.41 186 2142.27 181.856 2119.87 221C2107.72 242.235 2110 265.465 2110 289L2110 405M2356 405L2405 405L2405 330C2435.77 330 2467.31 332.012 2498 329.91C2517.13 328.601 2535.43 324.148 2549.99 310.826C2576.54 286.528 2579.07 241.093 2557.32 213C2536.75 186.431 2505.51 186 2475 186C2433.82 186 2387.2 181.518 2364.31 224C2353.49 244.07 2356 267.025 2356 289L2356 405z"/>
<path style="fill:#010101; stroke:none;" d="M929 235.465C897.567 241.132 908 291.687 908 315C908 325.079 906.122 337.394 912.558 345.996C917.66 352.816 925.692 355.779 934 355.985C956.6 356.548 983.803 359.72 1006 355.532C1015.07 353.821 1022.61 348.051 1025.21 339C1030.56 320.382 1026 294.378 1026 275C1026 264.723 1027.94 252.768 1021.21 244.093C1015.44 236.653 1005.83 235.014 997 235C975.288 234.965 950.357 231.614 929 235.465M2158 297L2277 297C2277 281.454 2282 255.517 2270.79 243.043C2263.53 234.965 2253 235 2243 235L2188 235C2179.33 235.003 2170.43 236.177 2164.34 243.093C2153.19 255.749 2158 281.405 2158 297M2405 281L2456 281L2488 281C2496.41 281 2505.53 281.695 2513 277.005C2525.06 269.429 2526.57 250.049 2515.81 240.684C2508.85 234.622 2499.64 235 2491 235L2439 235C2429.24 235 2418.78 234.872 2411.33 242.329C2401.79 251.869 2405 268.756 2405 281z"/>
<path style="fill:#ce157f; stroke:none;" d="M280 360L280 369L283 367L286 376L289 374L288 379L286 377L285 377L286 396L290 395L286 413L289 412L293 419L293 427C296.449 427 296.454 432.036 297 435L301 441C288.631 447.603 288.964 457.864 291 470L295 468L300 482L303 480C304.295 484.748 296.071 498.909 304 500L302 521L306 519L309 532C329.584 525.943 341.645 491.327 351.579 474C372.626 437.288 393.58 400.489 415.011 364C427.371 342.956 442.578 321.511 452 299L412 312.656L323 344.692L280 360z"/>
<path style="fill:#b71f17; stroke:none;" d="M414 364L415 365L414 364M301 442L302 443L301 442M343 487L344 488L343 487z"/>
</svg>
